<?xml version="1.0" encoding="utf-8"?>
<!-- Generator: Adobe Illustrator 20.1.0, SVG Export Plug-In . SVG Version: 6.00 Build 0)  -->
<svg version="1.1" id="Ebene_1" xmlns="http://www.w3.org/2000/svg" xmlns:xlink="http://www.w3.org/1999/xlink" x="0px" y="0px"
	 viewBox="0 0 1000 1000" style="enable-background:new 0 0 1000 1000;" xml:space="preserve">
	 <title>Keep your coins, I WANT CHANGE</title>
	<desc property="dc:creator">@empeiria | Jörg Lohrer based on Stencil Graffiti by MEEK</desc>

	 <metadata id="license"
						 xmlns:rdf="http://www.w3.org/1999/02/22-rdf-syntax-ns#"
						 xmlns:dc="http://purl.org/dc/elements/1.1/"
						 xmlns:cc="http://creativecommons.org/ns#">
		 <rdf:RDF>
			 <cc:Work rdf:about="">
				 <dc:format>image/svg+xml</dc:format>
				 <dc:type rdf:resource="http://purl.org/dc/dcmitype/StillImage" />
				 <cc:license rdf:resource="http://creativecommons.org/licenses/by-sa/4.0/" />
			 </cc:Work>
			 <cc:License rdf:about="http://creativecommons.org/licenses/by-sa/4.0/">
				 <cc:permits rdf:resource="http://creativecommons.org/ns#Reproduction" />
				 <cc:permits rdf:resource="http://creativecommons.org/ns#Distribution" />
				 <cc:requires rdf:resource="http://creativecommons.org/ns#Notice" />
				 <cc:requires rdf:resource="http://creativecommons.org/ns#Attribution" />
				 <cc:permits rdf:resource="http://creativecommons.org/ns#DerivativeWorks" />
				 <cc:requires rdf:resource="http://creativecommons.org/ns#ShareAlike" />
			 </cc:License>
		 </rdf:RDF>
	 </metadata>

<style type="text/css">
	.st0{display:none;fill:none;stroke:#000000;stroke-miterlimit:10;}
	.st1{fill:none;stroke:#000000;stroke-miterlimit:10;}
</style>


  <!-- graphical elements -->

<g id="Ebene_1_1_">
	<path class="st0" d="M0,0h1000v1000H0V0z"/>
	<path class="st1" d="M355.5,551.8c4.7-1.2,10.4-1.9,14.6,1.2c2.3,1.6,3.1,5.8,0.4,7.4c-6.3,4-13.8,5.2-20.8,7.5
		c-4.3,2-7.8,5.4-11.3,8.6c-3.4,3.3-7,6.3-9.9,10.1c-2.5,3.3-1.9,7.7-1.7,11.6c0.9,5.9,2.2,11.9,4.9,17.3c1.9,3.9,6.3,5.5,10.3,6
		c5.2,0.5,10.7,0.3,15.5-2c5.1-2.2,9-6.4,13.8-9.2c1.8-1.2,4.6-1.3,6,0.6c1.7,2.5,1.4,6,0,8.5c-1.5,1.9-3.6,3.2-5.6,4.4
		c-7.3,4.1-15,7.3-22.8,10.2c-5.9,2.4-11.9-1.8-16.1-5.6c-9.7-9.9-15.5-23.5-16.6-37.2c-1-8.9,5.9-15.5,11.5-21.4
		C335.7,562.1,344.8,555,355.5,551.8z"/>
	<path class="st1" d="M428.9,560.8c0.4-1.1,0.5-3,2.1-2.7c3-0.6,5.2,1.9,7.4,3.5c3.5,20,5.6,40.2,7.6,60.5c0,2.3,0.9,5.7-1.5,7.1
		c-3.8,1.6-8,0.9-11.9,0.7c-2.9-8.8-1.3-18.3-2.7-27.3c-9.6,1.3-19.4,0.9-28.9,3.1c-0.8,7.3,1.2,15.1-2.3,21.9
		c-1,2.7-3.9,5.3-6.8,3.9c-3.7-2.4-4.2-7.3-4.2-11.3c1.7-16.1,3.6-32.1,5.5-48.2c0.4-3.2,1.2-6.8,3.9-9c2-2,5-1.4,7.6-1.5
		c0.8,10.7-0.7,21.4-1.1,32.1c8.9,0.5,17.5-2,26-3.8C429.9,580,427.9,570.4,428.9,560.8z"/>
	<path class="st1" d="M464.7,568.7c3.8-1.8,7.7-3.6,12-3.3c2.9,3.4,4.6,7.6,6.7,11.5c8.1,16.1,16.3,32.2,23.9,48.7
		c2,3.9-0.2,10.5-5.4,9.8c-3.8-1.5-4.6-6-6.2-9.2c-2.7-5.8-5.5-12.1-10.9-15.9c-4.9-0.2-10,1.1-14.6-1.1c0.8-1.8,0.8-4.2,2.7-5.2
		c2.9-1.8,6.3-2.3,9.5-3.2c-3-6-7.6-10.9-12.2-15.7c-3.3,10.2-4.3,20.9-6,31.5c-1,5.5-1,11.7-4.4,16.4c-2.3,2.7-6.1,2.5-9.2,1.8
		c-0.5-8.1,1.7-16,3.6-23.8C457.9,596.9,460.5,582.6,464.7,568.7z"/>
	<path class="st1" d="M514.6,565.8c1.7-0.5,3.3-0.9,5-1.4c2.2,2.2,4,4.6,5.8,7.2c5.9,8.8,11.7,17.6,17.6,26.3
		c3.3,4.7,6.2,9.6,10.2,13.7c0.9-12-1.2-23.8-2.5-35.7c0-2.5-0.6-5.2,1-7.4c2-2.8,5.7-3.8,8.9-3.2c2.3,4.8,2,10.3,2.5,15.5
		c0.4,10.7-0.1,21.4,1.4,32c1.4,8.8,4.5,18,1.6,26.9c-2-0.3-4.1-0.9-5.6-2.4c-13.7-12.8-24.3-28.5-37.1-42.1
		c-0.7,8.6,1.8,17.1,1,25.6c-0.4,1.7-0.5,4.4-2.8,4.6c-3.6,1-7.4-2-7.8-5.6c-1-5.6-0.4-11.4-0.6-17.1
		C513.5,590.6,512.7,578.1,514.6,565.8z"/>
	<path class="st1" d="M580.7,573.6c8.1-7.1,20-8.6,30.1-5.6c6.6,2,13.2,5.1,17.9,10.4c1.5,1.1,1.2,3.8-0.7,4.2
		c-3.9,1.6-8.5,0.7-11.7-1.9c-6-4.7-14.1-3.5-21.2-3.5c-6.1-0.1-11.8,4.4-13.5,10.1c-2,6.4-1.4,13.2-0.2,19.6
		c1.2,5.9,4.7,11.8,10.4,14.5c6.3,3,13.7,2.1,20.1-0.3c-0.6-3.3-1.8-6.5-3.1-9.5c1.1-1.9,2-4,4-5.1c2.1-1.4,4.7-1.1,7-1.3
		c5.2,9.7,5.5,21.1,6.8,31.8c-0.3,0.7-1,2-1.3,2.6c-3.2,0.2-6.8,0.8-9.5-1.3c-1-3.1-1.3-6.3-2.2-9.4c-5,1.6-9.9,4.1-15.3,4.3
		c-6.4,0-12.6-2.8-16.8-7.5c-6.8-7.6-9.8-17.8-10.4-27.8C570.8,589.1,573.5,579.5,580.7,573.6z"/>
	<path class="st1" d="M656.3,568.5c2-1.1,4.4-1.4,6.6-1.7c8.4-0.7,16.8-0.5,25.1,0.6c4.4,0.7,9.1,1.4,12.7,4.4
		c-5,3.2-11.1,3-16.7,3.5c-8.5,0.1-17.4,0.9-25.2-3.3C657.6,571.2,655.5,570.3,656.3,568.5z"/>
	<path class="st1" d="M647.5,577.5c2.6-2.1,6.4-2,9.4-1c0.9,2.8-0.4,5.7-1,8.5c-2.5,8.1-1.9,16.6-2.5,25c-0.1,8.3,0,16.5,0,24.8
		c14.5,1.7,29.1-0.1,43.6-0.3c3.1-0.1,6.8,2.3,6.4,5.8c-7.3,1.1-14.7,0.3-22,0.4c-13.3-1-26.7-1.1-39.9-3.3
		c-0.6-16.9,2.3-33.6,3.5-50.4C645.5,583.7,644.8,579.8,647.5,577.5z"/>
	<path class="st1" d="M333.5,369.9c1.4-0.2,2.8-0.4,4.2-0.5c1.1,3.8,1.4,7.8,1.9,11.8c3.4-2.2,6.2-5.1,9.5-7.5
		c3.1-1.3,2.5,2.3,1.6,4c-1.7,3.1-4.1,5.8-6.2,8.6c4,4.7,9.3,8.7,11.2,14.9c-6.8-1.2-10.9-7.1-15.9-11.2c-0.9,3.9-1.5,8-3.7,11.4
		c-1.2-4-1.6-8.2-1.9-12.3C333.7,382.7,332.7,376.3,333.5,369.9z"/>
	<path class="st1" d="M386.1,376c3.1-1.4,6.5-0.4,9.6,0.4c0,1.5,0,3,0,4.6c-2,0.2-4.1,0.2-6,0.8c-1,1-1.7,2.3-2.4,3.4
		c3.7,0.4,7.6-1.2,11.2,0.1c0.3,1.4,0.3,2.8,0.5,4.3c-3.2,0.3-6.4,0.2-9.5,0.8c-2.8,0.4-2.7,4.4-1.1,6.1c4,0.8,8.8-1,12,2.5
		c-3.6,3.6-8.9,2.4-13.4,1.7c-2.1-0.5-4.7-0.6-6.1-2.5c-0.6-6.1,0.7-12.1,1.4-18.2C382.4,377.9,384.4,376.8,386.1,376z"/>
	<path class="st1" d="M407.7,378.3c3.1-3.9,8.7-4.2,13.3-4.3c3.3,0,7.4-0.2,9.5,2.9c0.1,4.4-3.3,7.7-6.4,10.4
		c-2.4,2.1-5.7,2.4-8.8,2.3c1.1-3.6,5-4.1,8-5.4c0.4-1.5,0.8-2.9,1.1-4.4c-4.1-0.7-8.1,0.3-12,1.1c-2.9,8.3,3.4,15.8,3.2,23.9
		c-2.8-1.3-5.2-3.4-5.9-6.5C408,391.9,406.4,385,407.7,378.3z"/>
	<path class="st1" d="M361.4,383c-0.3-6.1,7.5-6.6,11.9-6.8c0,1-0.1,2.9-0.1,3.9c-2.4,0.8-4.8,1.5-7.2,2.3c0.2,1,0.4,2,0.6,3
		c2.7-0.2,5.8-1.4,8.2,0.6c-2.1,2.6-5.9,2.1-8.7,3.3c-0.5,2.1-0.4,4.3-0.4,6.4c2.8,0.1,5.5-0.2,8.3,0c1.2,0.4,2.2,1.3,1.9,2.7
		c-4,1.1-8.6,1.6-12.5,0C359.5,394.4,361.4,388,361.4,383z"/>
	<path class="st1" d="M448.9,384c-1.3-1.5-0.5-3.6-0.6-5.4c4.1,2.3,7.3,5.7,10.4,9.1c2-2.9,3.7-6.1,6.2-8.6c1.3,0.2,2.4,0.9,3.2,2
		c-1.5,5.8-8.1,9.4-7.5,15.8c0,3.1,0.1,6.3-0.1,9.4c-1,0-3-0.1-4-0.1c-0.8-4.7-0.2-9.5,0.2-14.2C454.1,389.5,451.2,387,448.9,384z"
		/>
	<path class="st1" d="M473.3,388.2c1.8-2.7,4.1-5.8,7.7-6.1c1.8-0.1,4.4-0.4,4.6,2c-3,3.8-9.7,4.5-10.3,10.1c0.5,5.6,7.5,9.4,12.6,7
		c3-1.1,5.7-4.4,4.5-7.7c-1.3-3.4-3.6-6.2-5.5-9.2c7.4,0.6,11.9,9,10.2,15.7c-2.5,5.2-8.8,6.7-14.1,7.2c-4.4,0-9.8-1-11.9-5.3
		C469,397.4,470.9,392.2,473.3,388.2z"/>
	<path class="st1" d="M524.3,390.9c0.1-3.1,1-7.4,4.6-8c4.9-0.5,10.5-0.2,14.3,3.2c1.4,4.1-2.2,7-4.8,9.4c2.7,3.5,6.1,6.5,8.3,10.4
		c0.1,1.5-0.9,3.5-2.7,2.9c-2.6-1.1-4.5-3.4-6.6-5.3c-2-2.1-4.6-4.1-5.3-7c1.4-1.8,3.1-3.2,4.4-5.1c1-3.5-3.5-3.9-5.9-4.6
		c-3.3,6.9,0.9,14.3-1.4,21.4c-1.4-0.6-3.5-0.8-3.8-2.6C524,401,524.2,395.8,524.3,390.9z"/>
	<path class="st1" d="M503.3,403.8c-3.3-6.1-2.7-14.1,0.7-20.1c1.2,1.6,2.8,3.1,3.3,5.2c0.3,3.8-1.7,8,0.5,11.5c4,1.7,5-3.6,4.3-6.5
		c-0.7-3-0.5-6.1,0.7-9c1.2,0.2,2.3,0.3,3.5,0.6c1.8,5.9,1.9,12.5,0.2,18.5C514.6,410.2,505.8,408.3,503.3,403.8z"/>
	<path class="st1" d="M576.1,393.2c1.7-2.3,3.9-5,7-5.1c2.2-0.3,5.1,1.4,4.3,3.9c-2,1.8-4.8,2.6-6.7,4.5c-2.8,4.6-2.2,10.4-0.1,15.2
		c4.6-1.8,8.2-5.6,13-6.9c0,1.8,0.8,4.2-1.1,5.4c-4,3.5-9.8,6-15.1,4.2c-2.4-0.7-3.6-3.2-3.9-5.5
		C572.9,403.7,573.7,398.1,576.1,393.2z"/>
	<path class="st1" d="M626,392.8c1.3,0,2.5-0.1,3.8-0.1c1.9,7,3.3,14.4,2.8,21.7c-1.1,0.1-2.2,0.2-3.2,0.4
		C627.6,407.5,626.2,400.2,626,392.8z"/>
	<path class="st1" d="M599.4,398.1c0.2-3.2,3.5-5.8,6.7-5.5c1.8,0.5,3.2,1.6,4.6,2.7c-0.8,1-1.7,2-2.6,3.1c-1.6-0.2-3.3-0.4-4.9-0.6
		c-0.6,3.5-1.4,7.7,1.2,10.6c1.6,1.9,4.8,4,7.1,1.9c2.4-1.6,3.8-4.3,5.1-6.7c-1.8-2.4-5.2-3.9-6-6.9c1-3.9,4.8-0.6,6.4,1.1
		c3.9,3.7,3.2,10.7-1,13.9c-3.3,2.9-8.8,4.8-12.6,1.7C599.1,409.8,598.9,403.5,599.4,398.1z"/>
	<path class="st1" d="M668.6,406c-1.4-4.8,2.2-10.4,7.2-10.7c2.8,0,4.1,3,5.5,4.9c-2.4,1-5,1.6-7.4,2.5c0.3,3.9,4.6,5.3,7.5,7
		c4.7,2.5,6.4,8.6,4.8,13.5c-1.1,2.4-3.4,4.7-6.2,4.5c-3.7-0.2-7.2-2.1-9.8-4.7c-0.1-1.7,0-3.4,0.2-5c3.3,0.6,6.8,3.2,9.8,0.2
		C676.9,413.6,669.9,412,668.6,406z"/>
	<path class="st1" d="M652.3,398.7c1.1-0.3,3.3-1,4.4-1.3c5.3,6.6,6,15.5,4.4,23.5c-7.2-0.8-10.3-8.5-16.4-11.6
		c-1.6,4.4-2.6,9.6-7,12.2c-0.5-7.4-2-16.8,4-22.5c6,3.4,10.2,9.2,15.8,13.1C656.1,407.6,653.7,403.3,652.3,398.7z"/>
	<path class="st1" d="M352.4,438.6c2.4-1,5.6-0.4,6.8,2.1c3.4,6.2,3.3,13.5,3.9,20.3c0.2,9.4,0.2,18.7-0.4,28.1
		c-0.4,6.1,0.4,12.2-0.3,18.3c-0.5,3.2-1.8,7.2-5.4,7.9c-3.5,0.8-9-0.7-8.4-5.2c0-21.7,0-43.4,0-65.1
		C348.5,442.3,349.9,439.5,352.4,438.6z"/>
	<path class="st1" d="M506.5,445.8c0.7-0.4,2.1-1.1,2.8-1.5c2.3,1.5,4.8,3.1,5.8,5.8c0.7,3.4-0.1,6.9-0.9,10.2
		c-4.3,16.5-10.5,32.3-15.5,48.5c-1.2,4.2-1.3,9.8-5.9,11.8c-2,1.5-4.6,0.2-5.6-1.8c-5.9-9.9-9.9-20.9-14.7-31.3
		c-1-1.7-2.2-4.2-4.4-4.2c-2.3-0.2-2.9,2.4-3.8,4c-5.5,12.8-9.1,26.5-16.5,38.5c-1.2,2.2-3.6,4.2-6.2,2.7c-1.9-2-2.8-4.7-3.6-7.3
		c-2.3-8.5-2.7-17.3-3.5-26c-1.6-11.1-4.5-22.1-7.4-32.9c-1.2-4.9-1.6-11.1,2.4-14.8c1.7-1.8,5.2-1.7,6.4,0.6
		c2.6,4.2,3.3,9.1,4.3,13.8c2.7,15,4.7,30.1,8.3,44.9c3.9-6.6,6.2-14.1,8.9-21.3c2.7-7.6,6-15.4,5.2-23.6c-0.2-2.4-1.7-4.8-0.8-7.2
		c3.5-2.2,9.5-2.4,11.4,2c4.9,8.5,8.5,17.6,12.6,26.5c1.9,4.1,3.5,8.5,6.2,12.2C498.7,479.5,502.1,462.4,506.5,445.8z"/>
	<path class="st1" d="M536.4,452.5c0.8-1.4,2.1-2.2,3.8-2c1.9,3.1,2.9,6.6,4.2,9.9c7.6,20.2,15.2,40.5,22.5,60.8
		c1.4,3,0.5,6.6-1.7,9.1c-1.8,1.1-4.1,0.3-5.3-1.3c-5.4-6.8-4.9-16.3-9.5-23.4c-4.6-2.1-10.1-0.5-15.1-1.3c0.1-3-0.3-6.3,1.8-8.8
		c2.9-0.5,5.8-0.1,8.7-0.3c0.9-1.3,0.2-3,0-4.4c-1.5-5.8-3.4-11.6-6.4-16.8c-3.3,4.7-5.8,9.9-7.1,15.5c-2.4,10.1-3.7,20.6-7.2,30.4
		c-0.9,1.8-1.5,4.8-4,4.7c-2.3,0.1-5.3,0.4-6.4-2.2c-1.1-3.5,0.2-7.2,1.2-10.6c4.5-14.4,9.2-28.8,14-43.1
		C531.7,463.3,533,457.4,536.4,452.5z"/>
	<path class="st1" d="M610.2,460c0.1-4.1,5-4.4,8.1-4.3c4,21.2,2,43,4.9,64.3c0.7,3.7-0.9,8.4-5,9.3c-2.7,0.7-4.3-1.9-5.9-3.6
		c-9.3-11.4-17.7-23.4-26.5-35.2c-0.8,9.2,0.9,18.3,0.9,27.5c0.2,3.6-1.4,7.3-4.6,9.2c-2,1.1-4.6,0.2-5.5-1.8
		c-3.4-6.3-1.4-13.6-2.3-20.4c-0.3-11.7-1.2-23.3-1.1-35c0-4.9,2-10.6,6.8-12.5c2.5-1.3,6.3-0.6,7.1,2.4c2.8,7.6,1.1,16.4,5.6,23.4
		c5.8,9.1,13.5,16.7,21.4,24C614.7,491.3,611.2,475.7,610.2,460z"/>
	<path class="st1" d="M632.5,459.8c3.6-2.5,8.3-1.7,12.4-1.9c11.5,0.3,23.1-1.6,34.5,0.5c1,3.2,1.2,6.7,0.6,10
		c-5.5,1.1-11.1,0.8-16.7,0.2c-0.9,20.1,3,40.2,1.7,60.3c-2.9,4.6-12.4,1.9-11.7-3.9c-1.3-18.9-0.8-37.8-1.9-56.7
		c-4.8,0-9.7,1.8-14.4,0.3C633.5,467.5,632,463.3,632.5,459.8z"/>
	<path class="st1" d="M657.8,599.8c3.4-2.8,8-3,12.1-3.1c5.7,0,11.3,0,17,0c1.8,0.1,3.9-0.3,5.3,1.2c1.2,3.7-0.1,7.5-1.2,11.1
		c-3.6-1.3-7.1-3.3-11.1-3.2C672.4,605.5,663.9,605.1,657.8,599.8z"/>
	<path class="st1" d="M480.6,159.3c11.7-4.5,24.2-5.2,35.4,1.9c14.6,9.3-6.2,9.4-9.8,17.7c-1.3,3,0.3,11.9,1.2,14.9
		c2.2,7.2,6.1,8.1,13.1,9.1c15.6,2.2,25.9,2.3,28,20.8c1.3,11.2,1.4,26.2-2.7,36.9c-2.3,5.9-13.8,19.5-21.9,13.5
		c-3.5-2.5-0.2-8.3-2.2-11.6c-1-1.7-5.6-4.4-7.4-5.2c-1.2-0.9-2.5-1.6-3.9-2.2c-1.6-1.7-2.7-1.4-3.2,1c-3.2,0.3-10.2,6.7-10.9-1.8
		c-0.3-3.9,7.8-10.6,9.2-15.4c-11.2,3.8-12.4,2.5-23.1-0.8c0.1,4.9,7.3,13.5,5.9,17.2c-7.6,6.4-15.9-3.7-23.1-0.9
		c-6.7,2.6-7.2,16.3-11.1,21.5c-14.2-10.5-25.5-26.1-24.7-44.4c0.3-7.4,2.6-16.8,6.7-23c5.9-8.9,12.6-7.5,22.2-6.7
		c11.9,1,33.6-1.6,29.6-19.1C485.4,171.1,459.2,170,480.6,159.3C487.4,156.7,477.4,160.9,480.6,159.3z"/>
	<path class="st1" d="M375.4,220.4c3-3.6,6.5-6.6,10.4-9.2c-7.5,9.4-13.9,20.2-16.5,31.7c-2.2,9.9-8.1,16.5-17.8,21
		c0-6.3,7.7-12.5,10.6-18.4C366.4,236.6,369.1,228.1,375.4,220.4C378.4,216.8,368.1,229.3,375.4,220.4z"/>
	<path class="st1" d="M381.3,226.4c3-4.4,6.9-8,10.2-12.3c-1.1,8.3-2.2,16.5-2.9,24.8c-0.4,5.1-1.8,11.4-1.3,16.5
		c0.4,3.8,3.8,7.4,4,10c0.1,1.8-3.1,5.4-2.9,6.8c0.3,2.4,4.3,6.4,5.4,8.7c3.2,6.5,8.3,13.2,0.5,17.1c5.6,4.8,7.4,12.9,7.2,20
		c-2.3-1.1-4.4-2.5-6.4-4c-1.7-2.3-3.1-1.9-4.3,0.9c-0.7,0.8-1.5,1.6-2.2,2.4c-1.8-1.3-3.5-2.9-4.9-4.6c-3.8-2.7-4.7-4.1-8.8-5.8
		c-4.8-2-9.7,0.2-8.4-7c1.1-6.3,11.3-7.7,11.2-15.2c0-2.3-5.5-4.4-5.4-8.3c0.1-3.8,5.1-6.1,4-11.4c-7.9,1.7-21.4,11.2-21.3,18.2
		c0.1,4.5,5.1,5.5,3.1,10.8c-1.7,4.5-8.4,7.3-12.9,7c-2.3-2.8-3.7-6.4-2.9-10.1c11-0.5,8.7-5.2-0.3-9.4c-1.4,6-2.7,9-6.8,13.6
		c5.4,4.9,8.2,11.7,6.1,19.2c-9,7.3-12.7-5.4-15.2-10.1c-4.1,1.4-0.4,6.5,0,8.7c-7,2.9-9.7,1.7-13.7-3.7c-2.1-2.9-6.8-14.9-4.1-18.3
		c1-1.3,7.4-1,9.1-1.8c2.2-1,3.6-3.5,5.7-4.7c1.9-1.1,4.7-1.4,6.5-2.7c2.4-1.8,4.4-6.6,6.7-7.6c3.5-1.5,2.9,1.6,6.1,0.9
		c2.4-0.5,1.8-1.5,4.6-2.6c5.3-2.2,11.9-5.7,16.6-9.1C375.1,255,375.7,238.5,381.3,226.4C384.3,222,376.8,236.1,381.3,226.4z"/>
	<path class="st1" d="M578,248.9c6.6-1.8,6.5-0.7,8.4,6.2C583.4,253.2,580.6,251.1,578,248.9C579.8,248.4,580.6,251.1,578,248.9z"/>
	<path class="st1" d="M627,261c-0.8-2-0.1-4,0.6-5.9c10,4,4.6,7,4.6,14.8c4.1,0,5.7-3.7,8.8-1.8c1.3,0.8,3.8,6.9,3.6,8
		c-1.5,8.1-9.6,2.5-13.5,6c11.4,5.4,13.1,8.3,9.4,21.4c-5.5-1.7-8.3-7.9-14.3-8.2c0.9,5.3,2.3,6.2-0.6,9c-1.4,1.3-8.3,2.6-10.7,3.7
		c-5.5,2.3-12.2,6.6-17.6,0.9c-5.2-5.4-0.3-11.5,2.4-17.1c1.8-3.7,5.9-8.7,6.4-12.9c0.4-3.2-4.7-5.5-1.8-9.3
		c8.5-0.8,11.3,13.1,13.8,18.4c7.9-2.2-1.7-7.6,0.6-13C621.7,267.9,630.7,273.6,627,261C626.2,259,628,264.4,627,261z"/>
	<path class="st1" d="M571.9,262c-0.2-3.5,4.5-1.2,6.7-1.6c1.3,4.4,0.6,9.1-1.5,13.2C573.3,271,570.9,266.6,571.9,262
		C571.7,258.5,570.9,266.6,571.9,262z"/>
	<path class="st1" d="M482,266.7c9.8-0.9,22.4-7.2,31.6,0c5.2,4.1,3.9,5.5,1.1,11.6c-2,4.5-5.4,8.7-7.6,13.2c-3.2,6.3-1.8,7.2-8,7.3
		c-4,0.1-11.8-2.3-15.9-3.1c-8.8-1.8-16.9-11.2-9.2-19.9c9.5,4.2,21.5,14.1,30,1.3c-5.1-13.6-32.8,5.7-38.4-8.4
		C464,259.6,479.8,266,482,266.7C488.5,266.1,478.4,265.6,482,266.7z"/>
	<path class="st1" d="M304.1,270.9c1.2-5.8,8.4-6,13.1-5.5c2.1,6.7,10.9,1.3,12.5,8.9c-5.8,4.2-14.8,10-22,10.7
		C306.8,280.2,306.6,275.3,304.1,270.9C305.3,265.1,306.6,275.3,304.1,270.9z"/>
	<path class="st1" d="M586.1,268.5c5.4-5.2,13.9-1.8,14.5,5.2c0.5,5.9-7.6,14.4-12.9,15.5c1.6-3.7,7.4-8.9,6.2-12.5
		C592.8,273.8,587.8,271.7,586.1,268.5C589.5,265.2,587.2,270.6,586.1,268.5z"/>
	<path class="st1" d="M554,277.1c0.4-2.2,2.5-3.5,4-5c1.5,3.2,1.4,6.7,0,9.9C556.5,280.6,553.7,279.6,554,277.1
		C554.4,274.9,553.7,279.6,554,277.1z"/>
	<path class="st1" d="M569.2,279.4c1.8-2,4.5-2,7-2.3c0.6,2.9,1.2,5.9,1.3,8.9C573.4,286.5,570.2,283.1,569.2,279.4
		C571,277.4,570.2,283.1,569.2,279.4z"/>
	<path class="st1" d="M413.8,284.9c3.5,1.7,4.7,4.3,3.6,8C412.7,291.8,411.5,289.1,413.8,284.9C415,286,413.5,286.6,413.8,284.9z"/>
	<path class="st1" d="M546.2,292.1c0.9-1.1,1.9-2.2,2.8-3.4c1.9,1.5,5.4,2.8,4.2,5.9C549.1,298.7,547.7,296,546.2,292.1
		C547.1,291,546.8,293.7,546.2,292.1z"/>
	<path class="st1" d="M295.5,304.7c3.1-1.4,6.1-3.1,9.5-3.7c4.6,3.9-0.1,11.8-4.3,12.5c-1.6,0.3-5.7-2-7.3-2.1
		c-3.3-0.2-6.4,2.3-10.3,1.7C286.1,308.8,291,306.9,295.5,304.7C298.6,303.3,291,306.9,295.5,304.7z"/>
	<path class="st1" d="M420.9,301c1.2-0.4,2.5-0.8,3.7-1.2c0.4,2.3,0.7,4.6,0.9,6.9C422.8,305.8,421.7,303.4,420.9,301
		C422.1,300.6,421.7,303.4,420.9,301z"/>
	<path class="st1" d="M537,309.5c1-0.9,2.1-1.8,3.1-2.7c4.5,9.8-1.5,24.6-10.2,10.9C534.9,314.5,536.2,316.8,537,309.5
		C538,308.6,536.8,311.3,537,309.5z"/>
	<path class="st1" d="M424.2,311.6c4.7-1.1,9.2,1.5,11.2,5.7C429.4,319.7,426.7,317.3,424.2,311.6
		C428.9,310.5,425.3,314.1,424.2,311.6z"/>
	<path class="st1" d="M617,313.1c1.5-0.5,3-0.8,4.5-1.1c5.5,4.5,3.8,12.3,1.5,18c-3.9-1-7.7-3.5-11.9-3c-4.6,0.5-0.6,4.6-6.1,3.5
		c-5-1-1.1-0.9-4.2-4.1c-1.5-1.6-0.3-6.9-4.4-5c-2,2.9,0,6.3,0.7,9.2c-3.9-0.3-7.7-0.3-11.6-0.3c0.5-5.3,1.2-3.6,3.2-7.6
		c1.2-2.5,4.1-7.3,6-9.7C599,318.9,610.6,315.5,617,313.1C618.5,312.6,610.7,315.5,617,313.1z"/>
	<path class="st1" d="M628.5,321.4c3.4-5.4,5.3-10,11.7-9.4c4.6,0.4,14.8,8.6,15.5,13c1.4,8-2.7,3.3-6.9,3.9
		c-4,0.6-7.2,3.4-12.7,1.9c1.3-2.1,2.7-4.1,4-6.1c-3.6,0.4-7.8,6.2-8.9,6.2C624.7,331,626.5,324.7,628.5,321.4
		C630.7,317.9,627.3,323.4,628.5,321.4z"/>
	<path class="st1" d="M158.9,518.9c17.3-12.1,56.1,7.7,74.5,13.1c-16.5,19.8-38.4-1.2-58.1,1.5c-4.9,0.7-7.9,2.6-10.9,6.4
		c-3.9,5.2-3.5,5.9,0.3,9.4c7.4,6.8,24,1.6,16.8,15.8c5.2,1.6,12.6,2.9,7.2,10.5c-4.1,5.8-10.5,1.8-14.1-2.8
		c-5.7-7.2-7.1-12.8-16.4-17.1c-9-4.2-12.3,0.5-16.3,8.4c-4.1,8.2-2.2,14.6-2.9,23.3c-0.8,10.4-4.6,19.5-5,30.2
		c-0.7,20.7,4.9,42.3,1.8,62.8c-9.8-9.8-5.1-15.5-4.9-27.1c0.1-10.2-5.3-18.6-4.6-29.3c0.6-10.2-0.6-20.1-0.4-30.4
		c0.1-4.5,0.3-9,0.4-13.5c0.1-8.6-0.5-9.4-9.5-9.4C126.7,549.3,140.3,533.2,158.9,518.9C161.9,516.8,151.1,524.9,158.9,518.9z"/>
	<path class="st1" d="M781.8,548.2c5.2-11.8,13.3-10.8,23.9-8.7c13.1,2.6,17.9,7.8,26.2,18.2c14.7,18.5,32.2,38.4,41.5,60.4
		c9.5,22.4,10.2,49.7,8.4,73.6c-1.9,26.3-11.8,47.8-19.4,72.6c-2.7,8.9-3.6,17.7-12.9,9.9c-7.3-6.2-8.4-19.7-9.1-28.5
		c-0.9-10.6-0.7-21.1,0-31.7c0.8-12.3,7.6-19.7,9.9-31c1.8-9-4.3-21.5,1-29.8c4.8-7.6,17.7-7.4,19.5-18.3
		c3.5-21.1-31.2-22.3-38.8-35.6c-6-10.6-2.9-20.2-19.1-21.7c-13.6-1.2-26.1,6.5-39.3,8c-10.4,1.2-20.5-8.9-9-17.3
		c8.3-6.1,25.9,0.9,36.2-0.9C805,553.7,788.5,553.6,781.8,548.2C784.1,543,785.9,551.5,781.8,548.2z"/>
	<path class="st1" d="M200.3,554.7c-1.3-1.8,0.6-3.6,1.2-5.3c6.5,2.7,42.7,16.4,36.4,23.5c-5.9,6.6-17.6-1.4-21.5-5.4
		C212.1,563,203.7,559.4,200.3,554.7C199,552.9,203.5,559.2,200.3,554.7z"/>
	<path class="st1" d="M187.7,585c-1.3-5.5,7.3-6.1,9.6-2.2c4,4.1,1.8,10.4-2.3,13.5C192.6,592.5,190,588.8,187.7,585
		C186.4,579.5,190,588.8,187.7,585z"/>
	<path class="st1" d="M201.7,652.2c-1.2-2.2-1.4-4.6-1.2-7c6,2.1,9,6.5,13.4,10.8c4.6,4.5,8.5,6.3,14.1,9.3
		c13.7,7.1,22.8,19.2,35,28.4c10.7,8,24.2,10.4,35.2,17.7c10.5,7,23,17.8,28.3,29.4c8.3-5.6,15.1,10.5,24.7,12.9
		c6.6,1.7,14.2-0.1,21.2,1.2c6.2,1.2,12.2,3.2,18.5,3.4c12.6,0.4,21.4,1.3,33.5,5.1c11.8,3.8,24.3,0.9,35.5,4.6
		c-5.5,4-12.6,3.6-19.1,3.8c-0.8,12.8,16,3.8,21.2,2.2c-2.9,14.8-17,11.4-26.3,5.8c-5.8-3.5-8.8-7.5-15.5-7.6
		c-7-0.1-13.9,4.3-20.8,5c-6.5,0.6-8.6-2.2-14.4-3.6c-6.5-1.7-8.5,0.8-14.5,3.2c-14.1,5.8-24.7-1.1-36.3-9.2
		c-23.9-16.7-44.9-37.1-68.6-54.2C240.4,695.3,215.3,681.2,201.7,652.2C200.5,650,204.6,658.4,201.7,652.2z"/>
	<path class="st1" d="M131.7,684.8c6.1,0.5,3.8,15.1,4.1,20.7C130.2,700.3,129.9,691.6,131.7,684.8
		C132.9,684.9,129.9,691.6,131.7,684.8z"/>
	<path class="st1" d="M136.1,712.5c2.3,0.4,4.6,0.9,6.9,1.5c0.9,3.3-0.1,4.9-2.9,4.7C136,716.4,137.1,717.2,136.1,712.5
		C138.4,712.9,136.5,714.4,136.1,712.5z"/>
	<path class="st1" d="M472.5,757.7c7.1-2.5,12.2,5.7,17.4,8.7c7.1,4.2,14.4,2.8,22.1,4.7c16.3,4.1,31.1,15,47.4,20.1
		c17.6,5.5,36.3,7.6,54.2,11.9c11.2,2.7,42.5,5.7,49,17c-8.1,6.7-17.2,1.7-25-2c-7.9-3.8-16.2-5.1-24.9-7.1
		c-21.5-4.8-42.5-4-64.2-6.9c-18-2.4-30.2-19.3-47-20.9c-9.6-0.9-14.8-1.5-23-7.6C473.8,772.2,462.7,763.2,472.5,757.7
		C475,756.8,469.3,759.5,472.5,757.7z"/>
	<path class="st1" d="M778.2,795.6c22-7.2,43.7-14.9,65.6-22.3c6.9,13.4-15.9,17-25.1,20.3c-12.3,4.4-24.1,8.5-35.5,14.8
		c-26,14.4-53.4,15.9-81.5,23.6c-6.9,1.9-12.4,0.6-19.3,1c-6.2,0.3-12.3,2.9-18.5,4c-14.5,2.6-28,4-42.8,4.5
		c-14,0.4-27.9,0.4-41.9,0.4c-13.8,0-34.6,2.8-47.5-3c7.2-4.6,18.4-1.6,26.5-1.5c10.6,0.1,21.2-0.3,31.8-1
		c21.3-1.5,42.5-4.6,63.4-8.4C695.8,820.2,737.3,808.8,778.2,795.6C800.2,788.4,724.3,813,778.2,795.6z"/>
	<path class="st1" d="M421,790c-4.6-2.3-2.8-8.2,0-11.2c8-2.7,18.1,15.3,24.1,19.1c8.6,5.4,19.3,6.2,27,13.5
		C458.5,821.2,431,797.7,421,790C416.4,787.7,431.5,798.1,421,790z"/>
	<path class="st1" d="M835.5,795.5c5.5-5.9,12.8-9.8,20-13.4c-3.1,10.7-5.7,21.5-8.3,32.3c-1.1,4.7-2.6,22.3-7.2,24.1
		C828.4,843,829.9,801.2,835.5,795.5C841,789.6,831.3,799.8,835.5,795.5z"/>
	<path class="st1" d="M408.8,809.8c5.4-1.8,11.3-2.2,17-2c-0.2,5-10.8,18.4-16.7,14.1C405.7,819.2,404.1,812.2,408.8,809.8
		C414.2,808,404.1,812.2,408.8,809.8z"/>
	<path class="st1" d="M367.9,836.7c16.8-6.6,34.7-9.7,52.7-10.1c9.9-0.2,17.9,0,28.4,1.4c4.4,0.6,19.4,0.9,22.3,5.6
		c6.2,10.4-12.3,3.1-16.5,2.2c-7.9-1.7-16-2.5-24.1-2.9C409.6,831.8,388.8,833.7,367.9,836.7C386.3,829.5,387.8,833.8,367.9,836.7z"
		/>
	<path class="st1" d="M836.9,880.1c-1.2-12.1,0.9-24.5,5-35.9c10.2,2.3,6.7,7,4.1,15.5C843.8,866.6,841.9,874.7,836.9,880.1
		C835.7,868,839.1,877.7,836.9,880.1z"/>
	<path class="st1" d="M855.7,844.3c18.9,14.5,12.6,29.1,15.1,49.8c1.1,9.4,10.2,16.3,15.4,24.6c5.4,8.7,7.1,14,8.6,24.1
		c-6.3-7.9-15.3-7.2-24.7-9.5c-7.6-1.9-6.9,0.6-7.5-7.1c-0.4-6.1,1.8-12.8,2-19c0.4-14.6-7.9-16.6-13.3-27.7
		C846.5,869.6,852.8,854.3,855.7,844.3C860.5,848,852.9,853.8,855.7,844.3z"/>
	<path class="st1" d="M358.7,844.4c10.8,1.5,21.1,7,31.8,9.3c11.1,2.4,22.4,3.4,33.7,3.6c11,0.2,22,0,32.7-2.5
		c8.9-2.1,16.7-8.3,25.4-10c2.4,21.6-6,47.4-10.1,68.5c-1.1,5.9-2.3,11.8-3.5,17.7c-0.8,3.9-1.6,7.8-2.4,11.8c-2,0-3.9,0-5.9,0
		c-10.3,3.2-27.8,0-38.5,0c-11.8,0-23.7,0-35.5,0c-9.3,0-8.8,0.2-10.9-8.8c-1.4-5.9-2.7-11.7-4.1-17.6
		C366.4,893.9,357.1,867.5,358.7,844.4C362.2,844.9,358.2,851.7,358.7,844.4z"/>
	<path class="st1" d="M500.4,861.5c6.6-1.7,12.9,25.3,6.8,26.8C500.5,890,487.8,864.2,500.4,861.5
		C502,861.1,495.8,862.5,500.4,861.5z"/>
	<path class="st1" d="M262,873.9c7-3.2,53.1,1.3,44.6,12.8c-4.8,6.4-17.7-1.6-22.9-3.6C276.4,880.2,266.8,880.7,262,873.9
		C264.8,872.6,263.2,875.6,262,873.9z"/>
	<path class="st1" d="M539.6,885.4c2.4-8,7.3-13.7,15.7-10.3C553.3,881.6,546.2,885.4,539.6,885.4
		C541.2,880,546.2,885.4,539.6,885.4z"/>
	<path class="st1" d="M316.1,887.8c1.3-1.3,2.6-3.1,4.8-2.5c3.6,2.9,4.8,7.8,4.5,12.2C321,895.8,317.9,892,316.1,887.8
		C317.4,886.5,317.9,892,316.1,887.8z"/>
	<path class="st0" d="M512.4,897.2c9.4-1.3,12.9,13.1,14.7,19.3C520,917.1,512.1,903.9,512.4,897.2
		C516.1,896.7,512.3,899.4,512.4,897.2z"/>
	<path class="st1" d="M274,902.6c9-0.7,12.2-6.5,18.7,1.4c-6,10-19.3,6.8-28.7,6.6c-11.5-0.2-25.4,2.8-35.8-3.5
		c5.6-3.9,13.6-2.2,19.9-2.3C256.8,904.7,265.4,903.6,274,902.6C279,902.2,263.7,903.8,274,902.6z"/>
	<path class="st1" d="M817.8,911c-4-0.9-2.2-5.8-1.8-8.6c4.3,0.5,16.7,3.9,14.3,10.9C826.1,914.1,821.9,912,817.8,911
		C813.8,910.1,821.9,912,817.8,911z"/>
	<path class="st1" d="M262.7,923.5c14.1-6.8,35-4.3,50.2-4.1c7.3,0.1,41.3-2.9,43.6,6.7c-14.3,7.1-33.2,0.5-48.3,1.4
		c0.5,2.2,0.9,4.4,1.3,6.7c-4.6-0.5-7.7-4.5-11.9-6c-1.3,18-9.1,3.6-17.8,0.5c-9.8-3.5-29,5.5-38.7,8.1
		C247.6,931.5,254.9,927,262.7,923.5C273.1,918.5,254.9,927,262.7,923.5z"/>
	<path class="st1" d="M534.3,921.3c3.5-3.8,16.4,12.2,15.5,15.3C544.8,940.2,530.9,922.9,534.3,921.3
		C535.3,920.2,532.4,922.2,534.3,921.3z"/>
	<path class="st1" d="M810.2,924.6c3-5.6,8.3-5.3,11.6,0.5C817.9,925.5,814,925.5,810.2,924.6C811,923.1,814,925.5,810.2,924.6z"/>
	<path class="st0" d="M439.4,59.3c8.8-5.5,19.1-8.6,30-9.7s22.5-0.3,33.8,2c11.3,2.3,22.5,6.2,32.6,11.1
		c10.1,4.9,19.1,10.9,26.3,17.6c3.5,3.3,6.7,6.8,9.5,10.5s5.3,7.6,7.4,11.7c2.1,4.1,3.9,8.4,5.4,12.8s2.6,9,3.4,13.7
		c0.4,2.5,0.6,5,0.6,7.5s-0.1,5-0.3,7.6c-0.1,2.5-0.3,5-0.3,7.5s0.1,4.9,0.4,7.3c0.4,3,1,5.7,1.4,8.2s0.9,5,1.2,7.5s0.5,5,0.4,7.7
		s-0.4,5.6-1.1,8.8c-0.7,3.2-2.1,7.3-3.7,11.8c-1.6,4.5-3.4,9.4-4.7,14.3c-1.3,4.9-2.1,9.7-1.9,14.1c0.3,4.4,1.7,8.2,4.8,11.2
		c3.2,3,7.3,4.6,11.9,5.5s9.8,1.2,15,1.5s10.5,0.7,15.4,1.8s9.4,3,13.1,6.3c4.8,4.4,7.3,8.7,8.5,13.1c1.1,4.4,0.9,8.7,0.3,13.1
		c-0.6,4.4-1.5,8.8-1.8,13.2c-0.3,4.4,0.1,8.9,2.1,13.4c0.9,2.1,3,4.7,5.8,7.4c2.7,2.8,6.1,5.7,9.6,8.5c1.9,2.9,22.7,5.2,43.1,7.5
		c20.4,2.3,40.3,4.8,40.3,8.1c-29.2-1.4-75.3-3.8-121.5-6.3s-92.5-5.2-122.4-7.1c-29.8-1.9-59.6-3.9-89.4-5.6s-59.6-3.3-89.5-4.5
		c-3-0.1-6-0.3-9.1-0.4c-3-0.1-6-0.3-9.1-0.4c-3-0.1-6-0.2-9.1-0.3s-6-0.1-9.1-0.1c-6.6,0-11.5,0-15,0.4c-3.5,0.5-5.7,1.3-7.1,3.1
		c-1.4,1.7-2,4.2-2.3,7.9c-0.3,3.7-0.3,8.6-0.4,15.1c-0.1,3.2-0.2,6.3-0.3,9.5s-0.2,6.3-0.3,9.4s-0.2,6.3-0.3,9.4
		c-0.1,3.2-0.2,6.3-0.3,9.5c-0.1,1.9-0.1,3.8-0.2,5.7s-0.1,3.8-0.2,5.7c-0.1,1.9-0.1,3.8-0.2,5.7c-0.1,1.9-0.1,3.8-0.2,5.7
		c0.9,2.6,1.4,4.7,1.4,6.5s-0.3,3.2-1,4.2c-0.8,1-1.9,1.6-3.5,1.8s-3.5,0-5.9-0.6c-0.9,0.5-2.6,0.8-4.6,1c-2,0.3-4.4,0.5-6.6,0.9
		s-4.3,1.1-5.9,2.2c-1.5,1.1-2.5,2.6-2.5,4.7c0,2.6,1.1,4.5,2.8,5.8s4,2.2,6.5,2.8c2.5,0.6,5.2,0.8,7.6,1c2.5,0.2,4.7,0.3,6.3,0.5
		c0.8,0.1,2.5,0.3,4.4,0.4c2,0.1,4.2,0.3,6.5,0.4s4.4,0.2,6,0.2s2.8,0,3.1,0c3.3-0.8,5.6-1.3,7.1-1.8s2.2-1,2.2-1.7s-0.8-1.6-2.1-3
		c-1.3-1.4-3.2-3.2-5.6-5.7c5.9-0.1,9.7,1.4,11.8,3.8c2.1,2.4,2.5,5.7,1.6,9c-0.9,3.4-3.1,6.9-6,9.7c-3,2.9-6.8,5.1-10.9,5.9
		c-1.4,0.3-5.3-0.3-10.2-1c-4.9-0.7-10.8-1.6-16.1-1.8c-5.3-0.3-10,0.1-12.6,1.7c-2.6,1.7-3.1,4.6,0.1,9.6c0.9,1.4,2.9,2.6,5.6,3.5
		c2.7,1,5.9,1.7,9.2,2.4c3.3,0.6,6.7,1.1,9.5,1.5s5.2,0.7,6.5,0.9c0.8-0.1,1.6-0.3,2.4-0.5c0.7-0.2,1.5-0.5,2.1-0.9s1.3-0.8,1.9-1.3
		s1.2-1.1,1.7-1.7c0.4,0.3,0.9,0.7,1.3,1s0.9,0.7,1.3,1s0.9,0.7,1.3,1s0.9,0.7,1.3,1c2.4,0.2,4.7,0.7,6.9,1.2
		c2.2,0.5,4.1,0.8,5.7,0.6c1.6-0.2,2.7-1,3.2-2.9s0.4-4.8-0.6-9.4c2,1.5,3.5,3.2,4.4,5c1,1.8,1.5,3.6,1.5,5.5s-0.5,3.7-1.4,5.5
		c-1,1.8-2.4,3.6-4.3,5.2c-2.8,2.4-6.2,3.5-9.8,3.9c-3.7,0.4-7.6,0-11.7-0.6c-4-0.6-8.1-1.4-12-1.8s-7.6-0.6-10.8,0.1
		c-8.9,2-11.8,4.2-11,6.3s5.2,4,11,5.3s13.1,2,19.6,1.7s12.1-1.6,14.7-4.4c2.1,1.8,3.3,3.6,3.9,5.3c0.5,1.8,0.4,3.5-0.2,5.1
		s-1.7,3.1-2.9,4.5c-1.3,1.4-2.8,2.6-4.3,3.5c-1.8,1.2-4.4,1.2-7.1,0.7s-5.6-1.4-8.2-2s-4.9-0.9-6.3-0.1c-1.5,0.8-2.1,2.7-1.5,6.4
		c-1.6-0.2-3.2-0.4-4.8-0.5s-3.2-0.1-4.8,0s-3.2,0.3-4.8,0.5s-3.2,0.6-4.7,1c1.7,1.5,3.8,3.1,6,4.5s4.6,2.7,6.8,3.4
		c2.3,0.7,4.5,0.9,6.4,0.3c1.9-0.6,3.5-2.1,4.6-4.7c2.3,1.9,3.4,3.3,3.7,4.5c0.3,1.2-0.1,2.1-0.8,3.1c-0.8,0.9-1.9,1.8-2.9,2.9
		c-1.1,1.1-2.1,2.4-2.6,4.1c-0.5,0.2-1,0.3-1.5,0.5s-1,0.3-1.6,0.5s-1,0.3-1.5,0.5s-1,0.3-1.6,0.5c0,1.4,0,2.9,0,4.3s0,2.9,0,4.3
		c0,1.4,0,2.9-0.1,4.3c0,1.4-0.1,2.9-0.1,4.3c-0.1,5-0.2,10.1-0.3,15.1s-0.2,10.1-0.3,15.1s-0.2,10.1-0.3,15.1s-0.2,10.1-0.3,15.1
		c-0.1,4.2-0.3,8.6-0.6,13.1s-0.6,9-0.9,13.6s-0.4,9.1-0.3,13.6c0.1,4.4,0.4,8.8,1,13c0.7,4.4,1.4,7.7,2.3,10.2
		c0.9,2.5,2.1,4.1,3.8,5.3s3.7,1.8,6.5,2.3s6.3,0.8,10.7,1.2c17.9,1.8,35.9,2.5,53.9,2.8c18,0.2,36.1,0,54.2-0.1s36.1-0.2,54.1,0.5
		c18,0.6,35.9,2,53.7,4.6c9.1,1.3,18.2,2.3,27.2,3.1c9.1,0.8,18.1,1.3,27.1,1.8c9.1,0.4,18.1,0.7,27.2,0.8s18.2,0.3,27.4,0.4
		c10,0.1,19.9,0.5,29.8,1c9.9,0.5,19.8,1.2,29.7,1.8s19.8,1.3,29.7,1.8s19.8,0.8,29.7,0.8c4.9,0,9.4,0.2,13.4,0.3s7.7-0.1,10.9-0.7
		s6-1.9,8.4-4.1c2.4-2.2,4.4-5.3,6-9.7c1.4-3.8,2-8.4,2.3-13.5c0.2-5,0-10.5-0.4-16s-1-11-1.6-16.2c-0.5-5.2-1-10-1.1-14
		c-0.2-5-0.3-9.9-0.5-14.9s-0.3-9.9-0.5-14.9c-0.2-4.9-0.4-9.9-0.6-14.8c-0.2-4.9-0.5-9.9-0.7-14.8c-0.1-2.5-0.2-5-0.3-7.6
		s-0.2-5.1-0.4-7.7s-0.5-5.1-1-7.6s-1.1-4.9-2.1-7.3c-0.7-1.7-1.6-3-2.7-4.2s-2.2-2.1-3.3-3.2c-1.1-1-2.2-2.2-3.1-3.6
		c-0.9-1.4-1.6-3.1-2-5.3c2.2,1.4,6.2,2.9,10.5,3.9c4.3,1.1,9.1,1.8,13,1.9c3.9,0.1,7-0.6,7.9-2.2c1-1.6-0.2-4.3-4.7-8.3
		c-2.7-2.4-7.7-3.1-13.5-3.1c-5.8-0.1-12.4,0.4-18.3,0.3s-11-0.9-13.9-3.5c-2.9-2.6-3.6-7-0.5-14.4c1.6,3.2,2.8,5.2,4,6.3
		c1.2,1.2,2.3,1.6,3.6,1.5s3-0.5,5.2-1s5-1,8.6-1.2c1.7-0.1,4.8,0.3,8.4,0.7c3.5,0.4,7.5,0.8,10.9,0.8c3.4-0.1,6.4-0.6,7.9-2
		c1.5-1.5,1.6-3.8-0.7-7.6c-1.3-2.1-6.7-2.7-13.7-2.8c-7.1-0.1-15.8,0.2-23.9-0.3c-8-0.4-15.4-1.6-19.5-4.7c-4.2-3-5.2-8-0.7-15.9
		c1.6,3.8,3.1,6.1,4.8,7.4c1.6,1.3,3.3,1.7,5.3,1.6s4.2-0.7,6.9-1.4c2.7-0.6,5.8-1.3,9.5-1.4c1.5-0.1,4.3,0.3,7.7,0.7
		c3.4,0.4,7.3,0.9,11.1,1.1c3.8,0.1,7.4,0,10.1-1c2.7-0.9,4.6-2.6,4.9-5.4c0.6-5.4-3.8-8-10.3-9.4s-15.2-1.7-23.3-2.3
		s-15.4-1.6-19.4-4.5c-3.9-2.9-4.5-7.8,1.3-16.1c-0.1,4.9,0.4,7.8,1.6,9.4c1.1,1.6,2.9,1.9,5,1.6s4.7-1.3,7.5-2.2
		c2.8-0.9,6-1.8,9.2-2.1c2.7-0.2,5.3-0.1,7.9,0c2.6,0.1,5.2,0.3,7.8,0.3s5.1-0.1,7.7-0.6s5.1-1.4,7.6-2.9c-0.8-2.5-2.2-4.4-4-5.9
		s-3.8-2.5-6.1-3.4c-2.3-0.8-4.7-1.4-7.1-2c-2.4-0.5-4.8-1-7-1.7c8.9-2.6,15-3.3,19.4-2.7c4.4,0.6,7,2.6,8.9,5.6
		c1.9,2.9,3.1,6.8,4.6,11.1s3.3,9.2,6.4,14c2,3.2,4.1,6,6.1,8.6s4.1,5.1,6,7.7c1.9,2.5,3.8,5.2,5.5,8.1s3.3,6.1,4.8,9.9
		c1,2.7,1.9,5.4,2.7,8.1c0.8,2.8,1.5,5.5,2.2,8.3s1.4,5.5,2.2,8.3s1.6,5.5,2.6,8.1c2.2,5.8,4.9,11.2,8,16.3
		c3.1,5.2,6.6,10.1,10.3,15s7.5,9.6,11.4,14.5c3.8,4.8,7.6,9.7,11.2,14.8c4.4,6.2,8.1,12.4,11.3,18.6c3.2,6.2,5.9,12.5,8,19
		s3.7,13.1,4.9,20c1.1,6.9,1.8,14.2,2,21.8c0.2,7.3,0,14.4-0.6,21.2c-0.6,6.9-1.6,13.6-2.9,20.2s-3,13.2-4.9,19.8
		s-4.2,13.3-6.6,20.1c-1.9,5.2-4.2,11.1-6.6,17.5c-2.4,6.4-4.9,13.2-7.1,20.1c-2.2,6.9-4.2,13.8-5.5,20.4c-1.3,6.6-2,12.9-1.7,18.4
		c0.2,4.2,0.5,6.9,0.9,8.8c0.4,1.9,1,3,2,4s2.2,1.9,4,3.4s4,3.6,6.9,6.9c2.2,2.5,3.8,5,5.1,7.4c1.3,2.5,2.1,4.9,2.7,7.5
		c0.6,2.6,1,5.2,1.2,8s0.3,5.8,0.4,8.9c0.1,4.3,0.3,7.6,0.6,10.3s0.9,4.9,1.7,7s1.9,4.1,3.3,6.4c1.5,2.3,3.3,5,5.6,8.5
		c1.9,2.8,3.6,5.6,5.1,8.5c1.5,2.8,2.8,5.7,3.9,8.6c1.1,2.9,2,6,2.6,9.1c0.6,3.2,1.1,6.4,1.2,9.9c-66.5,0-132.9,0-199.4,0
		s-132.9,0-199.3,0s-132.9,0-199.4,0s-132.9,0-199.4,0c0.9-4.7,1.7-9.7,2.7-14.6c1-4.9,2.3-9.8,4.1-14.2c1.8-4.5,4.1-8.6,7.2-12
		s7-6.2,12-7.9c0.9-0.3,2.7-0.4,4.8-0.5c2.2-0.1,4.7-0.1,7.2-0.3s4.9-0.5,6.8-1.2c1.9-0.7,3.3-1.7,3.8-3.2c0.4-1.4-0.1-3.3-1.1-5.4
		c-1-2.1-2.5-4.4-4.2-6.6c-1.6-2.2-3.4-4.4-4.9-6.3s-2.7-3.5-3.3-4.5c-2.5-4.7-4-9.2-4.9-13.8s-1.3-9.1-1.4-13.7
		c-0.1-4.6,0-9.2,0-13.9s-0.2-9.5-0.8-14.5c-0.7-5.5-1.8-11-3.2-16.6c-1.3-5.6-2.9-11.1-4.6-16.7s-3.3-11.1-4.9-16.6
		s-3.1-11-4.3-16.4c-4.2-18.8-8.3-40.9-10.8-64c-2.4-23.1-3.2-47.2-0.7-70.2s8.3-44.9,18.9-63.5s26.1-34,48.1-44
		c-9.3-7.7-11.7-16.3-9.8-25s8.1-17.6,16-25.8s17.6-16,26.4-22.4c8.8-6.4,16.8-11.6,21.3-14.8c1.7-1.2,4.2-2.8,7-4.5
		s5.9-3.7,8.9-5.7s6-4.2,8.6-6.3c2.5-2.1,4.7-4.2,6-6.2c2.4-3.6,3.5-6.7,3.6-9.2s-0.7-4.3-2.2-5.5s-3.6-1.7-6-1.5s-5.1,1.1-7.8,2.9
		c0.8-1.8,2-3.1,3.3-4.2c1.4-1.1,2.9-1.9,4.4-2.6s3.1-1.4,4.4-2.3s2.4-1.8,3.1-3.2c0.9-1.7,1.6-4.3,2-7.4c0.5-3.1,0.8-6.6,1-10.2
		s0.3-7.2,0.4-10.4s0.2-6,0.4-7.9c0.3-2.4,0.4-4.8,0.6-7.2c0.2-2.4,0.4-4.7,0.7-6.8c0.4-2.1,0.9-4.1,1.7-5.9c0.8-1.8,2-3.3,3.5-4.5
		c0.7-0.5,1.9-1,3.5-1.6s3.5-1.2,5.5-1.7c2-0.6,4-1.2,5.8-1.7c1.8-0.6,3.4-1.1,4.5-1.6c4.3-1.9,7.3-3.2,9.4-4.3
		c2.1-1.1,3.2-2.1,3.9-3.3c0.7-1.2,0.9-2.6,1-4.6s0.2-4.7,0.7-8.4c0.2-1.6,0-3.4-0.2-5.3s-0.5-3.9-0.7-5.9c-0.1-2-0.1-3.9,0.5-5.7
		s1.5-3.3,3.1-4.6c3.2-2.4,6.9-3.5,10.9-4.1s8.3-0.4,12.7-0.5s8.8-0.2,13-1.1c4.2-1,8.3-2.8,11.9-6.1c3.1-2.9,5.5-6.2,7.5-9.7
		s3.7-7.2,5.4-10.8c1.7-3.6,3.5-7.2,5.7-10.5s5-6.3,8.6-8.8c3.2-2.2,5.5-3.4,7.1-4.2s2.6-1.1,3.4-1.8c0.7-0.6,1.2-1.5,1.7-3.3
		s1.1-4.5,2.1-8.8c0.5-2.3,0.8-4.7,0.9-7.2s0-5.1-0.1-7.6c-0.1-2.6-0.3-5.1-0.4-7.7c-0.1-2.5-0.1-5,0-7.3c0.5-9.2,1.4-19.1,3.1-29
		s4.1-19.9,7.5-29.3s7.9-18.4,13.7-26.3C423.7,71.3,430.7,64.5,439.4,59.3c3.8-2.4,4.6-2.9,3.8-2.4c-0.8,0.4-3,1.8-5.1,3.1
		s-4.2,2.5-4.5,2.8C433.3,62.9,434.7,62.1,439.4,59.3z"/>
</g>
<g id="Ebene_2">
</g>
<path class="st1" d="M754.2,431.7c-0.4-16.2-2-39.5-3.4-58.3s-2.8-33.1-2.8-31.5c-14.6-0.7-33.4-1.6-54.4-2.7
	c-20.9-1.1-44-2.3-67.1-3.6c-23.1-1.3-46.2-2.6-67.3-3.8c-21.1-1.2-40.2-2.4-55.1-3.3c-14.9-1-29.8-1.9-44.7-2.9s-29.8-1.8-44.7-2.7
	c-14.9-0.9-29.8-1.7-44.7-2.4s-29.8-1.5-44.8-2.1c-1.5-0.1-3-0.1-4.5-0.2s-3-0.1-4.5-0.2s-3-0.1-4.5-0.2s-3-0.1-4.5-0.2
	s-3-0.1-4.5-0.2c-1.5,0-3-0.1-4.5-0.1s-3-0.1-4.5-0.1s-3,0-4.5-0.1c-3.3,0-6.2,0-8.7,0c-2.5,0.1-4.6,0.2-6.3,0.4
	c-1.8,0.2-3.2,0.6-4.3,1.1s-2.1,1.1-2.7,2c-0.7,0.9-1.2,1.9-1.5,3.2c-0.4,1.3-0.6,2.9-0.7,4.7c-0.1,1.9-0.2,4-0.3,6.5
	c-0.1,2.5-0.1,5.3-0.2,8.6c0,1.6-0.1,3.2-0.1,4.7c0,1.6-0.1,3.1-0.1,4.7s-0.1,3.1-0.1,4.7s-0.1,3.1-0.1,4.7s-0.1,3.1-0.1,4.7
	s-0.1,3.1-0.1,4.7s-0.1,3.2-0.1,4.7c0,1.6-0.1,3.2-0.1,4.7c0,1-0.1,1.9-0.1,2.9s-0.1,1.9-0.1,2.9s-0.1,1.9-0.1,2.9s-0.1,1.9-0.1,2.9
	s-0.1,1.9-0.1,2.9s-0.1,1.9-0.1,2.9s-0.1,1.9-0.1,2.9s-0.1,1.9-0.1,2.9c0.4,1.3,0.8,2.5,1,3.6s0.4,2.1,0.4,3s0,1.7-0.2,2.4
	c-0.2,0.7-0.4,1.3-0.8,1.8s-0.9,0.9-1.4,1.2c-0.6,0.3-1.3,0.5-2,0.6c-0.8,0.1-1.7,0.1-2.7,0s-2.1-0.3-3.3-0.6
	c-0.5,0.3-1.1,0.5-1.9,0.6c-0.8,0.2-1.7,0.3-2.7,0.4s-2.1,0.3-3.2,0.4c-1.1,0.1-2.3,0.3-3.4,0.5c-1.1,0.2-2.2,0.5-3.2,0.8
	s-1.9,0.8-2.7,1.3s-1.4,1.2-1.8,1.9c-0.4,0.8-0.7,1.7-0.7,2.7c0,1.3,0.3,2.4,0.8,3.4s1.2,1.8,2,2.5s1.8,1.2,2.9,1.7
	c1.1,0.5,2.3,0.8,3.5,1.1c1.2,0.3,2.5,0.5,3.8,0.7s2.6,0.3,3.8,0.4s2.4,0.2,3.5,0.3c1.1,0.1,2,0.2,2.8,0.3c0.4,0.1,1,0.1,1.8,0.2
	s1.6,0.1,2.6,0.2s2,0.1,3.1,0.2s2.2,0.1,3.3,0.2c1.1,0.1,2.2,0.1,3.2,0.1s2,0.1,2.8,0.1s1.5,0,2.1,0c0.5,0,0.9,0,1,0
	c1.6-0.4,3-0.7,4.2-1s2.1-0.5,2.9-0.8s1.3-0.5,1.7-0.8c0.4-0.3,0.5-0.6,0.5-0.9s-0.2-0.7-0.6-1.2s-0.9-1.1-1.5-1.7
	c-0.7-0.7-1.5-1.5-2.4-2.4s-2-2-3.2-3.3c3-0.1,5.4,0.3,7.4,0.9c2,0.7,3.4,1.6,4.5,2.8c1,1.2,1.7,2.6,1.9,4.1
	c0.2,1.5,0.1,3.2-0.3,4.9c-0.4,1.7-1.2,3.4-2.2,5.1s-2.3,3.2-3.8,4.7c-1.5,1.4-3.2,2.7-5,3.7s-3.8,1.8-5.9,2.2
	c-0.7,0.1-2,0.1-3.8-0.1s-4-0.5-6.4-0.9s-5.1-0.7-7.9-1.1c-2.7-0.3-5.5-0.6-8.2-0.7s-5.2-0.1-7.3,0.2c-2.2,0.3-4,0.8-5.3,1.6
	c-1.3,0.8-2.1,2-2.1,3.6c-0.1,1.6,0.6,3.6,2.2,6.1c0.4,0.7,1.2,1.3,2.1,1.9s2.1,1.1,3.5,1.6c1.3,0.5,2.8,0.9,4.4,1.3
	c1.6,0.4,3.2,0.7,4.9,1.1s3.3,0.6,4.9,0.8c1.6,0.2,3.2,0.5,4.6,0.7s2.7,0.4,3.8,0.5s2,0.3,2.7,0.4c0.4,0,0.8-0.1,1.2-0.2
	c0.4-0.1,0.8-0.2,1.2-0.3c0.4-0.1,0.7-0.2,1.1-0.4s0.7-0.3,1-0.5s0.7-0.4,1-0.6s0.6-0.5,0.9-0.7c0.3-0.3,0.6-0.5,0.9-0.8
	s0.6-0.6,0.8-0.9c0.2,0.2,0.4,0.3,0.6,0.5s0.4,0.3,0.6,0.5s0.4,0.3,0.6,0.5s0.4,0.3,0.6,0.5s0.4,0.3,0.6,0.5s0.4,0.3,0.6,0.5
	s0.4,0.3,0.6,0.5s0.4,0.3,0.6,0.5c1.2,0.1,2.4,0.3,3.5,0.5c1.2,0.2,2.3,0.5,3.4,0.7s2.1,0.4,3.1,0.6c1,0.1,1.8,0.2,2.6,0.1
	c0.8-0.1,1.5-0.4,2-0.8c0.5-0.5,1-1.1,1.2-2.1s0.4-2.2,0.3-3.7s-0.4-3.4-0.8-5.7c1,0.8,1.9,1.6,2.6,2.4s1.4,1.7,1.8,2.6
	c0.5,0.9,0.9,1.8,1.1,2.7s0.4,1.8,0.4,2.8c0,0.9-0.1,1.9-0.4,2.8c-0.2,0.9-0.6,1.8-1.1,2.7c-0.5,0.9-1.1,1.8-1.8,2.7
	c-0.7,0.9-1.5,1.7-2.5,2.5c-1.4,1.2-2.9,2.1-4.6,2.7c-1.6,0.6-3.4,1-5.2,1.2c-1.8,0.2-3.7,0.2-5.7,0.1s-4-0.4-6-0.7
	c-2-0.3-4-0.6-6.1-1s-4-0.6-6-0.9c-1.9-0.2-3.8-0.4-5.7-0.4c-1.8,0-3.6,0.2-5.2,0.5c-4.4,1-7.4,2.1-9.1,3.1s-2.3,2.2-1.9,3.2
	c0.4,1,1.7,2,3.6,2.9s4.5,1.7,7.4,2.4c2.9,0.7,6.2,1.2,9.6,1.5s6.8,0.4,10,0.3s6.3-0.6,8.8-1.3c2.5-0.7,4.6-1.7,5.9-3.1
	c1.1,0.9,1.9,1.8,2.5,2.7c0.6,0.9,1.1,1.8,1.3,2.7c0.3,0.9,0.4,1.7,0.3,2.6c0,0.8-0.2,1.7-0.5,2.5s-0.7,1.6-1.2,2.3
	s-1.1,1.5-1.7,2.1c-0.6,0.7-1.3,1.3-2.1,1.9s-1.5,1.1-2.2,1.6c-0.9,0.6-2,0.9-3.2,1s-2.5,0-3.9-0.3c-1.4-0.2-2.8-0.6-4.1-0.9
	s-2.8-0.7-4-1c-1.3-0.3-2.5-0.5-3.6-0.6s-2,0.1-2.7,0.5s-1.3,1.1-1.5,2.1c-0.3,1-0.3,2.4,0,4.3c-0.8-0.1-1.6-0.2-2.4-0.3
	c-0.8-0.1-1.6-0.1-2.4-0.2c-0.8,0-1.6-0.1-2.4-0.1c-0.8,0-1.6,0-2.4,0.1s-1.6,0.1-2.4,0.2c-0.8,0.1-1.6,0.2-2.4,0.3
	c-0.8,0.1-1.6,0.3-2.4,0.5c-0.8,0.2-1.6,0.4-2.4,0.6c0.9,0.7,1.8,1.5,2.8,2.3s2.1,1.5,3.2,2.2c1.1,0.7,2.3,1.4,3.4,2
	c1.2,0.6,2.3,1.1,3.4,1.4c1.1,0.4,2.3,0.6,3.3,0.7c1.1,0.1,2.1,0,3-0.3s1.8-0.8,2.6-1.6c0.8-0.8,1.5-1.8,2-3.1c1.1,1,2,1.8,2.6,2.5
	s1,1.4,1.1,2c0.2,0.6,0.2,1.1,0,1.6s-0.4,1-0.8,1.4s-0.8,0.9-1.4,1.4c-0.5,0.5-1,1-1.6,1.5c-0.5,0.5-1,1.1-1.5,1.8s-0.8,1.4-1.1,2.3
	c-0.3,0.1-0.5,0.2-0.8,0.2c-0.3,0.1-0.5,0.2-0.8,0.2c-0.3,0.1-0.5,0.2-0.8,0.2c-0.3,0.1-0.5,0.2-0.8,0.2c-0.3,0.1-0.5,0.2-0.8,0.2
	c-0.3,0.1-0.5,0.2-0.8,0.2c-0.3,0.1-0.5,0.2-0.8,0.2c-0.3,0.1-0.5,0.2-0.8,0.2c0,0.7,0,1.4,0,2.2c0,0.7,0,1.4,0,2.2
	c0,0.7,0,1.4,0,2.2c0,0.7,0,1.4,0,2.2c0,0.7,0,1.4,0,2.2c0,0.7,0,1.4,0,2.2c0,0.7,0,1.4,0,2.2c0,0.7,0,1.4-0.1,2.2
	c0,2.5-0.1,5-0.1,7.6c0,2.5-0.1,5-0.2,7.6c-0.1,2.5-0.1,5-0.2,7.6c-0.1,2.5-0.1,5-0.2,7.6s-0.1,5-0.2,7.6c-0.1,2.5-0.1,5-0.2,7.6
	s-0.1,5-0.1,7.6s-0.1,5-0.1,7.6c0,2.1-0.1,4.3-0.2,6.4c-0.1,2.2-0.2,4.4-0.4,6.6c-0.1,2.2-0.3,4.5-0.4,6.8c-0.1,2.3-0.3,4.5-0.4,6.8
	c-0.1,2.3-0.2,4.6-0.3,6.8s-0.1,4.5,0,6.7c0,2.2,0.1,4.4,0.3,6.6c0.2,2.2,0.4,4.3,0.7,6.4c0.3,2.2,0.7,4.1,1.1,5.8
	c0.4,1.7,0.8,3.1,1.3,4.4c0.5,1.2,1,2.3,1.6,3.1s1.3,1.6,2.1,2.2c0.8,0.6,1.8,1,2.8,1.4c1.1,0.4,2.3,0.7,3.7,0.9s3,0.4,4.7,0.6
	s3.7,0.4,5.9,0.6c8.9,0.9,17.9,1.5,26.9,1.9s18,0.7,27,0.8s18,0.1,27.1,0.1c9,0,18.1-0.1,27.1-0.2c9-0.1,18.1-0.1,27.1,0
	s18,0.2,27,0.5s18,0.8,26.9,1.6s17.9,1.7,26.8,3c4.6,0.7,9.1,1.2,13.6,1.8c4.5,0.5,9.1,1,13.6,1.4s9,0.7,13.6,1
	c4.5,0.3,9,0.5,13.6,0.7c4.5,0.2,9.1,0.4,13.6,0.5s9.1,0.2,13.6,0.3s9.1,0.2,13.7,0.2s9.2,0.1,13.8,0.1c5,0,9.9,0.2,14.9,0.3
	c5,0.2,9.9,0.4,14.9,0.7s9.9,0.5,14.9,0.9c5,0.3,9.9,0.6,14.9,1c4.9,0.3,9.9,0.6,14.8,0.9c4.9,0.3,9.9,0.6,14.8,0.8
	c4.9,0.2,9.9,0.4,14.9,0.6c5,0.1,9.9,0.2,14.9,0.3c2.5,0,4.8,0.1,7,0.1s4.4,0.1,6.4,0.2c2,0,3.9,0,5.8-0.1c1.8-0.1,3.5-0.3,5.1-0.6
	s3.1-0.8,4.5-1.5s2.7-1.5,3.9-2.6s2.3-2.4,3.3-4s1.9-3.5,2.7-5.7c0.7-1.9,1.2-4,1.6-6.3c0.4-2.3,0.6-4.7,0.7-7.2
	c0.1-2.5,0.1-5.1,0-7.8s-0.2-5.4-0.5-8.2c-0.2-2.7-0.5-5.5-0.7-8.2c-0.3-2.7-0.6-5.4-0.8-8s-0.5-5.1-0.7-7.4
	c-0.2-2.3-0.3-4.6-0.4-6.6c-0.1-2.5-0.2-5-0.2-7.4c-0.1-2.5-0.2-5-0.2-7.4c-0.1-2.5-0.2-5-0.3-7.4s-0.2-5-0.3-7.4s-0.2-4.9-0.3-7.4
	s-0.2-4.9-0.3-7.4s-0.2-4.9-0.3-7.4s-0.2-4.9-0.4-7.4c-0.1-1.2-0.1-2.5-0.2-3.8c0-1.3-0.1-2.5-0.1-3.8s-0.1-2.6-0.1-3.8
	c-0.1-1.3-0.1-2.6-0.2-3.8s-0.2-2.5-0.4-3.8s-0.3-2.5-0.6-3.8s-0.5-2.5-0.9-3.7c-0.3-1.2-0.7-2.4-1.2-3.6c-0.3-0.9-0.7-1.6-1.2-2.3
	c-0.4-0.7-0.9-1.3-1.5-1.9c-0.5-0.6-1.1-1.1-1.6-1.6c-0.6-0.5-1.1-1-1.7-1.6c-0.6-0.5-1.1-1.1-1.6-1.6c-0.5-0.6-1-1.2-1.5-1.9
	s-0.9-1.5-1.2-2.4s-0.6-1.9-0.8-3c1.1,0.7,2.7,1.4,4.5,2.1c1.8,0.7,3.9,1.3,6,1.8c2.2,0.5,4.4,1,6.6,1.3c2.2,0.3,4.4,0.5,6.3,0.6
	s3.7-0.1,5.1-0.5c1.4-0.4,2.4-0.9,2.8-1.7c0.5-0.8,0.4-1.9-0.3-3.3c-0.7-1.4-2.2-3-4.4-5.1c-1.3-1.2-3.3-2-5.6-2.4
	c-2.3-0.5-5-0.7-7.9-0.7s-6,0.1-9.1,0.2c-3.1,0.1-6.2,0.2-9.2,0.1c-2.9-0.1-5.7-0.3-8.1-0.8c-2.4-0.5-4.4-1.4-5.9-2.7
	s-2.4-3-2.5-5.4s0.5-5.3,2-9c0.8,1.6,1.5,2.9,2.1,3.9s1.2,1.8,1.8,2.4s1.1,1,1.7,1.2c0.6,0.2,1.2,0.3,1.9,0.3s1.4-0.1,2.3-0.3
	c0.9-0.2,1.8-0.4,2.9-0.7c1.1-0.2,2.3-0.5,3.8-0.7c1.4-0.2,3-0.4,4.9-0.5c0.9,0,2.1,0,3.5,0.2s3.1,0.3,4.8,0.5
	c1.8,0.2,3.6,0.4,5.5,0.6c1.9,0.1,3.7,0.2,5.4,0.2s3.3-0.2,4.7-0.5s2.5-0.8,3.2-1.5c0.8-0.7,1.1-1.7,1.1-2.9
	c-0.1-1.3-0.6-2.8-1.8-4.7c-0.6-1.1-2.3-1.7-4.7-2.1s-5.5-0.6-9-0.6c-3.5-0.1-7.5,0-11.6,0s-8.3,0-12.3-0.3c-4-0.2-7.9-0.6-11.2-1.4
	c-3.4-0.7-6.2-1.8-8.3-3.3s-3.4-3.5-3.6-6.1c-0.2-2.6,0.7-5.8,2.9-9.8c0.8,1.9,1.6,3.4,2.4,4.6c0.8,1.2,1.6,2.1,2.4,2.8
	s1.6,1.1,2.5,1.3s1.8,0.3,2.8,0.2c1-0.1,2-0.2,3.2-0.5s2.4-0.6,3.7-0.9s2.8-0.6,4.4-0.9c1.6-0.3,3.3-0.5,5.1-0.5
	c0.8,0,1.8,0,3.2,0.2s2.9,0.3,4.5,0.6c1.7,0.2,3.5,0.4,5.4,0.6s3.8,0.4,5.7,0.4s3.7,0.1,5.4-0.1c1.7-0.1,3.3-0.4,4.7-0.9
	s2.5-1.1,3.4-2s1.4-2,1.5-3.4c0.3-2.7-0.7-4.7-2.5-6.2s-4.6-2.5-7.8-3.2c-3.3-0.7-7.1-1.1-11.1-1.4s-8.2-0.5-12.2-0.8
	s-7.9-0.7-11.2-1.4s-6.2-1.7-8.2-3.1c-2-1.5-3.1-3.4-3-6s1.4-5.9,4.3-10.1c-0.1,2.4,0,4.4,0.3,5.9s0.7,2.7,1.3,3.5s1.3,1.3,2.1,1.5
	s1.8,0.2,2.9,0.1c1.1-0.2,2.2-0.5,3.5-0.9s2.6-0.9,4-1.3c1.4-0.5,2.9-0.9,4.5-1.3c1.5-0.4,3.1-0.6,4.8-0.8c1.3-0.1,2.7-0.1,4-0.1
	s2.6,0.1,3.9,0.1c1.3,0.1,2.6,0.1,3.9,0.2c1.3,0.1,2.6,0.1,3.9,0.1s2.6,0,3.8-0.1c1.3-0.1,2.5-0.3,3.8-0.5s2.5-0.6,3.8-1.1
	s2.5-1.1,3.8-1.8c-0.4-1.3-1-2.4-1.6-3.3c-0.7-1-1.4-1.8-2.3-2.6c-0.9-0.7-1.8-1.4-2.8-1.9s-2.1-1-3.2-1.4c-1.1-0.4-2.3-0.8-3.5-1.1
	s-2.4-0.6-3.6-0.9c-1.2-0.3-2.4-0.5-3.6-0.8c-1.2-0.3-2.3-0.5-3.4-0.9c4.4-1.3,8.2-2.1,11.4-2.6c3.2-0.4,8-0.2,10.2,0.2
	c2.2,0.3,1.8,0.7,3.2,1.6s2.6,2.2,3.5,3.6c1,1.5,1.7,3.2,2.5,5C778.4,431,764.8,427.1,754.2,431.7"/>
<path class="st1" d="M754.2,431.7c0.4-6.7,11.3-2,14.9-1.5c4.4,0.6,7,2.6,8.9,5.6c1.9,2.9,3.1,6.8,4.6,11.1s3.3,9.2,6.4,14
	c2,3.2,4.1,6,6.1,8.6s4.1,5.1,6,7.7c1.9,2.5,3.8,5.2,5.5,8.1s3.3,6.1,4.8,9.9c1,2.7,1.9,5.4,2.7,8.1c0.8,2.8,1.5,5.5,2.2,8.3
	s1.4,5.5,2.2,8.3s1.6,5.5,2.6,8.1c2.2,5.8,4.9,11.2,8,16.3c3.1,5.2,6.6,10.1,10.3,15s7.5,9.6,11.4,14.5c3.8,4.8,7.6,9.7,11.2,14.8
	c4.4,6.2,8.1,12.4,11.3,18.6c3.2,6.2,5.9,12.5,8,19s3.7,13.1,4.9,20c1.1,6.9,1.8,14.2,2,21.8c0.2,7.3,0,14.4-0.6,21.2
	c-0.6,6.9-1.6,13.6-2.9,20.2s-3,13.2-4.9,19.8s-4.2,13.3-6.6,20.1c-1.9,5.2-4.2,11.1-6.6,17.5c-2.4,6.4-4.9,13.2-7.1,20.1
	c-2.2,6.9-4.2,13.8-5.5,20.4c-1.3,6.6-2,12.9-1.7,18.4c0.2,4.2,0.5,6.9,0.9,8.8c0.4,1.9,1,3,2,4s2.2,1.9,4,3.4s4,3.6,6.9,6.9
	c2.2,2.5,3.8,5,5.1,7.4c1.3,2.5,2.1,4.9,2.7,7.5c0.6,2.6,1,5.2,1.2,8s0.3,5.8,0.4,8.9c0.1,4.3,0.3,7.6,0.6,10.3s0.9,4.9,1.7,7
	s1.9,4.1,3.3,6.4c1.5,2.3,3.3,5,5.6,8.5c1.9,2.8,3.6,5.6,5.1,8.5c1.5,2.8,2.8,5.7,3.9,8.6c1.1,2.9,2,6,2.6,9.1
	c0.6,2.8,0.9,5.6,1.1,8.6c0,0.7-0.5,1.3-1.2,1.3h-198c-66.4,0-132.9,0-199.3,0s-132.9,0-199.4,0h-198c-0.7,0-1.3-0.7-1.2-1.4
	c0.8-4.3,1.5-8.7,2.4-13.2c1-4.9,2.3-9.8,4.1-14.2c1.8-4.5,4.1-8.6,7.2-12s7-6.2,12-7.9c0.9-0.3,2.7-0.4,4.8-0.5
	c2.2-0.1,4.7-0.1,7.2-0.3s4.9-0.5,6.8-1.2c1.9-0.7,3.3-1.7,3.8-3.2c0.4-1.4-0.1-3.3-1.1-5.4c-1-2.1-2.5-4.4-4.2-6.6
	c-1.6-2.2-3.4-4.4-4.9-6.3s-2.7-3.5-3.3-4.5c-2.5-4.7-4-9.2-4.9-13.8s-1.3-9.1-1.4-13.7c-0.1-4.6,0-9.2,0-13.9s-0.2-9.5-0.8-14.5
	c-0.7-5.5-1.8-11-3.2-16.6c-1.3-5.6-2.9-11.1-4.6-16.7s-3.3-11.1-4.9-16.6s-3.1-11-4.3-16.4c-4.2-18.8-8.3-40.9-10.8-64
	c-2.4-23.1-3.2-47.2-0.7-70.2s8.3-44.9,18.9-63.5c10.4-18.2,25.4-33.2,46.4-43.2c0.8-0.4,0.9-1.4,0.3-1.9
	c-8.1-7.4-10.2-15.6-8.4-23.9c1.9-8.7,8.1-17.6,16-25.8s17.6-16,26.4-22.4c8.8-6.4,16.8-11.6,21.3-14.8c1.7-1.2,4.2-2.8,7-4.5
	s5.9-3.7,8.9-5.7s6-4.2,8.6-6.3c2.5-2.1,4.7-4.2,6-6.2c2.4-3.6,3.5-6.7,3.6-9.2s-0.7-4.3-2.2-5.5s-3.6-1.7-6-1.5
	c-1.1,0.1-2.2,0.3-3.3,0.7c-1.2,0.4-2.2-1.2-1.1-2l0,0c1.4-1.1,2.9-1.9,4.4-2.6s3.1-1.4,4.4-2.3s2.4-1.8,3.1-3.2
	c0.9-1.7,1.6-4.3,2-7.4c0.5-3.1,0.8-6.6,1-10.2s0.3-7.2,0.4-10.4s0.2-6,0.4-7.9c0.3-2.4,0.4-4.8,0.6-7.2c0.2-2.4,0.4-4.7,0.7-6.8
	c0.4-2.1,0.9-4.1,1.7-5.9c0.8-1.8,2-3.3,3.5-4.5c0.7-0.5,1.9-1,3.5-1.6s3.5-1.2,5.5-1.7c2-0.6,4-1.2,5.8-1.7
	c1.8-0.6,3.4-1.1,4.5-1.6c4.3-1.9,7.3-3.2,9.4-4.3c2.1-1.1,3.2-2.1,3.9-3.3c0.7-1.2,0.9-2.6,1-4.6s0.2-4.7,0.7-8.4
	c0.2-1.6,0-3.4-0.2-5.3s-0.5-3.9-0.7-5.9c-0.1-2-0.1-3.9,0.5-5.7s1.5-3.3,3.1-4.6c3.2-2.4,6.9-3.5,10.9-4.1s8.3-0.4,12.7-0.5
	s8.8-0.2,13-1.1c4.2-1,8.3-2.8,11.9-6.1c3.1-2.9,5.5-6.2,7.5-9.7s3.7-7.2,5.4-10.8c1.7-3.6,3.5-7.2,5.7-10.5s5-6.3,8.6-8.8
	c3.2-2.2,5.5-3.4,7.1-4.2s2.6-1.1,3.4-1.8c0.7-0.6,1.2-1.5,1.7-3.3s1.1-4.5,2.1-8.8c0.5-2.3,0.8-4.7,0.9-7.2s0-5.1-0.1-7.6
	c-0.1-2.6-0.3-5.1-0.4-7.7c-0.1-2.5-0.1-5,0-7.3c0.5-9.2,1.4-19.1,3.1-29s4.1-19.9,7.5-29.3s7.9-18.4,13.7-26.3
	c5.8-7.9,12.8-14.7,21.5-19.8c3.8-2.4,4.6-2.9,3.8-2.4c-0.8,0.4-3,1.8-5.1,3.1s-4.2,2.5-4.5,2.8c-0.3,0.2,1.1-0.6,5.8-3.4
	c8.8-5.5,19.1-8.6,30-9.7c10.9-1.1,22.5-0.3,33.8,2c11.3,2.3,22.5,6.2,32.6,11.1c10.1,4.9,19.1,10.9,26.3,17.6
	c3.5,3.3,6.7,6.8,9.5,10.5s5.3,7.6,7.4,11.7c2.1,4.1,3.9,8.4,5.4,12.8s2.6,9,3.4,13.7c0.4,2.5,0.6,5,0.6,7.5s-0.1,5-0.3,7.6
	c-0.1,2.5-0.3,5-0.3,7.5s0.1,4.9,0.4,7.3c0.4,3,1,5.7,1.4,8.2s0.9,5,1.2,7.5s0.5,5,0.4,7.7s-0.4,5.6-1.1,8.8
	c-0.7,3.2-2.1,7.3-3.7,11.8c-1.6,4.5-3.4,9.4-4.7,14.3c-1.3,4.9-2.1,9.7-1.9,14.1c0.3,4.4,1.7,8.2,4.8,11.2c3.2,3,7.3,4.6,11.9,5.5
	s9.8,1.2,15,1.5s10.5,0.7,15.4,1.8s9.4,3,13.1,6.3c4.8,4.4,7.3,8.7,8.5,13.1c1.1,4.4,0.9,8.7,0.3,13.1c-0.6,4.4-1.5,8.8-1.8,13.2
	c-0.3,4.4,0.1,8.9,2.1,13.4c0.9,2.1,3,4.7,5.8,7.4c2.7,2.8,6.1,5.7,9.6,8.5c1.9,2.9,22.7,5.2,43.1,7.5c14.9,1.7,29.5,3.5,36.3,5.6
	c1.3,0.4,4.5,3.3,4.6,4.7C751.3,373.9,756,400.6,754.2,431.7z"/>
</svg>
